<svg xmlns="http://www.w3.org/2000/svg" viewBox="0 0 32 32">
  <defs>
    <!-- Background gradient -->
    <radialGradient id="bg" cx="50%" cy="50%">
      <stop offset="0%" style="stop-color:#0f1a2e;stop-opacity:1" />
      <stop offset="100%" style="stop-color:#050a15;stop-opacity:1" />
    </radialGradient>
    
    <!-- Flame gradient -->
    <linearGradient id="flame" x1="0%" y1="0%" x2="0%" y2="100%">
      <stop offset="0%" style="stop-color:#ff9944;stop-opacity:1" />
      <stop offset="100%" style="stop-color:#ff6622;stop-opacity:0.8" />
    </linearGradient>
    
    <!-- Glow gradient -->
    <radialGradient id="glow" cx="50%" cy="50%">
      <stop offset="0%" style="stop-color:#ffffff;stop-opacity:1" />
      <stop offset="50%" style="stop-color:#88bbff;stop-opacity:0.8" />
      <stop offset="100%" style="stop-color:#4488ff;stop-opacity:0" />
    </radialGradient>
  </defs>
  
  <!-- Background -->
  <rect width="32" height="32" fill="url(#bg)" rx="4"/>
  
  <!-- Simplified flame ring (8 flames) -->
  <g transform="translate(16, 16)" opacity="0.85">
    <!-- Top flame -->
    <path d="M 0,-10 Q -1,-13 0,-14 Q 1,-13 0,-10 Z" fill="url(#flame)"/>
    <!-- Top-right -->
    <path d="M 7,-7 Q 6,-10 7,-11 Q 8,-10 7,-7 Z" fill="url(#flame)"/>
    <!-- Right -->
    <path d="M 10,0 Q 9,-3 10,-4 Q 11,-3 10,0 Z" fill="url(#flame)"/>
    <!-- Bottom-right -->
    <path d="M 7,7 Q 6,4 7,3 Q 8,4 7,7 Z" fill="url(#flame)"/>
    <!-- Bottom -->
    <path d="M 0,10 Q -1,7 0,6 Q 1,7 0,10 Z" fill="url(#flame)"/>
    <!-- Bottom-left -->
    <path d="M -7,7 Q -8,4 -7,3 Q -6,4 -7,7 Z" fill="url(#flame)"/>
    <!-- Left -->
    <path d="M -10,0 Q -11,-3 -10,-4 Q -9,-3 -10,0 Z" fill="url(#flame)"/>
    <!-- Top-left -->
    <path d="M -7,-7 Q -8,-10 -7,-11 Q -6,-10 -7,-7 Z" fill="url(#flame)"/>
  </g>
  
  <!-- Trident (Trishula) -->
  <g transform="translate(16, 16)" stroke="#aaccff" stroke-width="1.2" fill="none" stroke-linecap="round">
    <!-- Center prong -->
    <line x1="0" y1="0" x2="0" y2="-5"/>
    <!-- Left prong -->
    <line x1="0" y1="0" x2="-3.5" y2="-4.5"/>
    <!-- Right prong -->
    <line x1="0" y1="0" x2="3.5" y2="-4.5"/>
  </g>
  
  <!-- Prong tips -->
  <circle cx="16" cy="11" r="1" fill="#aaccff"/>
  <circle cx="12.5" cy="11.5" r="1" fill="#aaccff"/>
  <circle cx="19.5" cy="11.5" r="1" fill="#aaccff"/>
  
  <!-- Third eye (center) -->
  <circle cx="16" cy="16" r="3" fill="url(#glow)"/>
  <circle cx="16" cy="16" r="1.5" fill="#ffffff"/>
</svg>
